<mxfile host="Electron" agent="Mozilla/5.0 (Windows NT 10.0; Win64; x64) AppleWebKit/537.36 (KHTML, like Gecko) draw.io/24.7.5 Chrome/126.0.6478.183 Electron/31.3.0 Safari/537.36" version="24.7.5">
  <diagram name="Страница — 1" id="iWCdSw2Li_uw-Vny-NbS">
    <mxGraphModel dx="1803" dy="1047" grid="1" gridSize="10" guides="1" tooltips="1" connect="1" arrows="1" fold="1" page="1" pageScale="1" pageWidth="827" pageHeight="1169" math="0" shadow="0">
      <root>
        <mxCell id="0" />
        <mxCell id="1" parent="0" />
        <mxCell id="QOVAfa2Nv-o42hQcaNNP-4" value="" style="group" vertex="1" connectable="0" parent="1">
          <mxGeometry x="15" y="30" width="80" height="80" as="geometry" />
        </mxCell>
        <mxCell id="QOVAfa2Nv-o42hQcaNNP-2" value="" style="ellipse;whiteSpace=wrap;html=1;aspect=fixed;" vertex="1" parent="QOVAfa2Nv-o42hQcaNNP-4">
          <mxGeometry width="80" height="80" as="geometry" />
        </mxCell>
        <mxCell id="QOVAfa2Nv-o42hQcaNNP-3" value="" style="ellipse;whiteSpace=wrap;html=1;aspect=fixed;fillColor=#000000;" vertex="1" parent="QOVAfa2Nv-o42hQcaNNP-4">
          <mxGeometry x="30" y="10" width="20" height="20" as="geometry" />
        </mxCell>
        <mxCell id="QOVAfa2Nv-o42hQcaNNP-7" value="" style="group" vertex="1" connectable="0" parent="1">
          <mxGeometry x="15" y="120" width="80" height="80" as="geometry" />
        </mxCell>
        <mxCell id="QOVAfa2Nv-o42hQcaNNP-5" value="" style="ellipse;whiteSpace=wrap;html=1;aspect=fixed;" vertex="1" parent="QOVAfa2Nv-o42hQcaNNP-7">
          <mxGeometry width="80" height="80" as="geometry" />
        </mxCell>
        <mxCell id="QOVAfa2Nv-o42hQcaNNP-6" value="" style="triangle;whiteSpace=wrap;html=1;rotation=90;fillColor=#000000;" vertex="1" parent="QOVAfa2Nv-o42hQcaNNP-7">
          <mxGeometry x="30" y="10" width="20" height="20" as="geometry" />
        </mxCell>
        <mxCell id="QOVAfa2Nv-o42hQcaNNP-10" value="" style="group" vertex="1" connectable="0" parent="1">
          <mxGeometry x="30" y="420" width="50" height="20" as="geometry" />
        </mxCell>
        <mxCell id="QOVAfa2Nv-o42hQcaNNP-8" value="" style="ellipse;whiteSpace=wrap;html=1;aspect=fixed;fillColor=#000000;" vertex="1" parent="QOVAfa2Nv-o42hQcaNNP-10">
          <mxGeometry width="20" height="20" as="geometry" />
        </mxCell>
        <mxCell id="QOVAfa2Nv-o42hQcaNNP-9" value="" style="ellipse;whiteSpace=wrap;html=1;aspect=fixed;fillColor=#000000;" vertex="1" parent="QOVAfa2Nv-o42hQcaNNP-10">
          <mxGeometry x="30" width="20" height="20" as="geometry" />
        </mxCell>
        <mxCell id="QOVAfa2Nv-o42hQcaNNP-13" value="" style="group" vertex="1" connectable="0" parent="1">
          <mxGeometry x="15" y="210" width="80" height="80" as="geometry" />
        </mxCell>
        <mxCell id="QOVAfa2Nv-o42hQcaNNP-11" value="" style="ellipse;whiteSpace=wrap;html=1;aspect=fixed;" vertex="1" parent="QOVAfa2Nv-o42hQcaNNP-13">
          <mxGeometry width="80" height="80" as="geometry" />
        </mxCell>
        <mxCell id="QOVAfa2Nv-o42hQcaNNP-12" value="" style="rounded=0;whiteSpace=wrap;html=1;fillColor=#000000;" vertex="1" parent="QOVAfa2Nv-o42hQcaNNP-13">
          <mxGeometry x="30" y="10" width="20" height="20" as="geometry" />
        </mxCell>
        <mxCell id="QOVAfa2Nv-o42hQcaNNP-16" value="" style="group" vertex="1" connectable="0" parent="1">
          <mxGeometry x="15" y="310" width="80" height="80" as="geometry" />
        </mxCell>
        <mxCell id="QOVAfa2Nv-o42hQcaNNP-17" value="" style="ellipse;whiteSpace=wrap;html=1;aspect=fixed;" vertex="1" parent="QOVAfa2Nv-o42hQcaNNP-16">
          <mxGeometry width="80" height="80" as="geometry" />
        </mxCell>
        <mxCell id="QOVAfa2Nv-o42hQcaNNP-18" value="" style="triangle;whiteSpace=wrap;html=1;rotation=-90;fillColor=#000000;" vertex="1" parent="QOVAfa2Nv-o42hQcaNNP-16">
          <mxGeometry x="30" y="10" width="20" height="20" as="geometry" />
        </mxCell>
        <mxCell id="QOVAfa2Nv-o42hQcaNNP-28" value="" style="group" vertex="1" connectable="0" parent="1">
          <mxGeometry x="556.5" width="100" height="100" as="geometry" />
        </mxCell>
        <mxCell id="QOVAfa2Nv-o42hQcaNNP-29" value="&lt;div&gt;&lt;br&gt;&lt;/div&gt;&lt;div&gt;&lt;br&gt;&lt;/div&gt;Необходимо установить Linux" style="ellipse;whiteSpace=wrap;html=1;aspect=fixed;" vertex="1" parent="QOVAfa2Nv-o42hQcaNNP-28">
          <mxGeometry width="100" height="100" as="geometry" />
        </mxCell>
        <mxCell id="QOVAfa2Nv-o42hQcaNNP-30" value="" style="triangle;whiteSpace=wrap;html=1;rotation=90;fillColor=#000000;" vertex="1" parent="QOVAfa2Nv-o42hQcaNNP-28">
          <mxGeometry x="37.5" y="12.5" width="25" height="25" as="geometry" />
        </mxCell>
        <mxCell id="QOVAfa2Nv-o42hQcaNNP-31" value="" style="group" vertex="1" connectable="0" parent="1">
          <mxGeometry x="554" y="130" width="110" height="110" as="geometry" />
        </mxCell>
        <mxCell id="QOVAfa2Nv-o42hQcaNNP-32" value="&lt;div&gt;&lt;br&gt;&lt;/div&gt;&lt;div&gt;&lt;br&gt;&lt;/div&gt;Заходим на официальный сайт" style="ellipse;whiteSpace=wrap;html=1;aspect=fixed;" vertex="1" parent="QOVAfa2Nv-o42hQcaNNP-31">
          <mxGeometry y="5.5" width="99.00000000000003" height="99.00000000000003" as="geometry" />
        </mxCell>
        <mxCell id="QOVAfa2Nv-o42hQcaNNP-33" value="" style="ellipse;whiteSpace=wrap;html=1;aspect=fixed;fillColor=#000000;" vertex="1" parent="QOVAfa2Nv-o42hQcaNNP-31">
          <mxGeometry x="37.125" y="12.375000000000004" width="24.750000000000007" height="24.750000000000007" as="geometry" />
        </mxCell>
        <mxCell id="QOVAfa2Nv-o42hQcaNNP-104" style="edgeStyle=orthogonalEdgeStyle;rounded=0;orthogonalLoop=1;jettySize=auto;html=1;entryX=0.5;entryY=0;entryDx=0;entryDy=0;" edge="1" parent="1" source="QOVAfa2Nv-o42hQcaNNP-34" target="QOVAfa2Nv-o42hQcaNNP-35">
          <mxGeometry relative="1" as="geometry">
            <Array as="points">
              <mxPoint x="749" y="550" />
              <mxPoint x="604" y="550" />
            </Array>
          </mxGeometry>
        </mxCell>
        <mxCell id="QOVAfa2Nv-o42hQcaNNP-34" value="Есть нужный дистрибутив" style="ellipse;whiteSpace=wrap;html=1;aspect=fixed;" vertex="1" parent="1">
          <mxGeometry x="699" y="440" width="100" height="100" as="geometry" />
        </mxCell>
        <mxCell id="QOVAfa2Nv-o42hQcaNNP-106" style="edgeStyle=orthogonalEdgeStyle;rounded=0;orthogonalLoop=1;jettySize=auto;html=1;entryX=0.5;entryY=0;entryDx=0;entryDy=0;" edge="1" parent="1" source="QOVAfa2Nv-o42hQcaNNP-35" target="QOVAfa2Nv-o42hQcaNNP-46">
          <mxGeometry relative="1" as="geometry" />
        </mxCell>
        <mxCell id="QOVAfa2Nv-o42hQcaNNP-35" value="" style="rounded=1;whiteSpace=wrap;html=1;fillColor=#000000;" vertex="1" parent="1">
          <mxGeometry x="529" y="575" width="150" height="10" as="geometry" />
        </mxCell>
        <mxCell id="QOVAfa2Nv-o42hQcaNNP-40" value="" style="group" vertex="1" connectable="0" parent="1">
          <mxGeometry x="554" y="280" width="105" height="110" as="geometry" />
        </mxCell>
        <mxCell id="QOVAfa2Nv-o42hQcaNNP-38" value="&lt;div&gt;&lt;br&gt;&lt;/div&gt;Выбираем дистрибутив" style="ellipse;whiteSpace=wrap;html=1;aspect=fixed;" vertex="1" parent="QOVAfa2Nv-o42hQcaNNP-40">
          <mxGeometry width="100" height="100" as="geometry" />
        </mxCell>
        <mxCell id="QOVAfa2Nv-o42hQcaNNP-39" value="" style="rounded=0;whiteSpace=wrap;html=1;fillColor=#000000;" vertex="1" parent="QOVAfa2Nv-o42hQcaNNP-40">
          <mxGeometry x="36.80555555555556" y="12.222222222222223" width="26.388888888888893" height="25" as="geometry" />
        </mxCell>
        <mxCell id="QOVAfa2Nv-o42hQcaNNP-41" value="" style="group" vertex="1" connectable="0" parent="1">
          <mxGeometry x="554" y="440" width="100" height="100" as="geometry" />
        </mxCell>
        <mxCell id="QOVAfa2Nv-o42hQcaNNP-42" value="&lt;div&gt;&lt;br&gt;&lt;/div&gt;Установка дистрибутива&lt;div&gt;&lt;/div&gt;" style="ellipse;whiteSpace=wrap;html=1;aspect=fixed;" vertex="1" parent="QOVAfa2Nv-o42hQcaNNP-41">
          <mxGeometry width="100" height="100" as="geometry" />
        </mxCell>
        <mxCell id="QOVAfa2Nv-o42hQcaNNP-43" value="" style="rounded=0;whiteSpace=wrap;html=1;fillColor=#000000;" vertex="1" parent="QOVAfa2Nv-o42hQcaNNP-41">
          <mxGeometry x="36.80555555555556" y="12.222222222222223" width="26.388888888888893" height="25" as="geometry" />
        </mxCell>
        <mxCell id="QOVAfa2Nv-o42hQcaNNP-45" value="" style="group" vertex="1" connectable="0" parent="1">
          <mxGeometry x="554" y="610" width="110" height="110" as="geometry" />
        </mxCell>
        <mxCell id="QOVAfa2Nv-o42hQcaNNP-46" value="&lt;div&gt;&lt;br&gt;&lt;/div&gt;Дистрибутив установлен&lt;div&gt;&lt;/div&gt;" style="ellipse;whiteSpace=wrap;html=1;aspect=fixed;" vertex="1" parent="QOVAfa2Nv-o42hQcaNNP-45">
          <mxGeometry width="99.00000000000001" height="99.00000000000001" as="geometry" />
        </mxCell>
        <mxCell id="QOVAfa2Nv-o42hQcaNNP-47" value="" style="ellipse;whiteSpace=wrap;html=1;aspect=fixed;fillColor=#000000;" vertex="1" parent="QOVAfa2Nv-o42hQcaNNP-45">
          <mxGeometry x="37.125" y="12.375000000000002" width="24.750000000000004" height="24.750000000000004" as="geometry" />
        </mxCell>
        <mxCell id="QOVAfa2Nv-o42hQcaNNP-110" style="edgeStyle=orthogonalEdgeStyle;rounded=0;orthogonalLoop=1;jettySize=auto;html=1;entryX=0.5;entryY=0;entryDx=0;entryDy=0;" edge="1" parent="1" source="QOVAfa2Nv-o42hQcaNNP-48" target="QOVAfa2Nv-o42hQcaNNP-65">
          <mxGeometry relative="1" as="geometry" />
        </mxCell>
        <mxCell id="QOVAfa2Nv-o42hQcaNNP-48" value="" style="rounded=1;whiteSpace=wrap;html=1;fillColor=#000000;" vertex="1" parent="1">
          <mxGeometry x="169" y="710" width="150" height="10" as="geometry" />
        </mxCell>
        <mxCell id="QOVAfa2Nv-o42hQcaNNP-113" style="edgeStyle=orthogonalEdgeStyle;rounded=0;orthogonalLoop=1;jettySize=auto;html=1;exitX=0.5;exitY=1;exitDx=0;exitDy=0;entryX=0.5;entryY=0;entryDx=0;entryDy=0;" edge="1" parent="1" source="QOVAfa2Nv-o42hQcaNNP-49" target="QOVAfa2Nv-o42hQcaNNP-68">
          <mxGeometry relative="1" as="geometry" />
        </mxCell>
        <mxCell id="QOVAfa2Nv-o42hQcaNNP-49" value="" style="rounded=1;whiteSpace=wrap;html=1;fillColor=#000000;" vertex="1" parent="1">
          <mxGeometry x="390" y="710" width="150" height="10" as="geometry" />
        </mxCell>
        <mxCell id="QOVAfa2Nv-o42hQcaNNP-50" value="" style="group" vertex="1" connectable="0" parent="1">
          <mxGeometry x="119" y="920" width="110" height="110" as="geometry" />
        </mxCell>
        <mxCell id="QOVAfa2Nv-o42hQcaNNP-51" value="&lt;div&gt;&lt;br&gt;&lt;/div&gt;Установка на джёсткий диск&lt;br&gt;(как 2 система)" style="ellipse;whiteSpace=wrap;html=1;aspect=fixed;" vertex="1" parent="QOVAfa2Nv-o42hQcaNNP-50">
          <mxGeometry width="110" height="110" as="geometry" />
        </mxCell>
        <mxCell id="QOVAfa2Nv-o42hQcaNNP-52" value="" style="rounded=0;whiteSpace=wrap;html=1;fillColor=#000000;" vertex="1" parent="QOVAfa2Nv-o42hQcaNNP-50">
          <mxGeometry x="43.125" y="11" width="23.750000000000004" height="22.5" as="geometry" />
        </mxCell>
        <mxCell id="QOVAfa2Nv-o42hQcaNNP-53" value="" style="group" vertex="1" connectable="0" parent="1">
          <mxGeometry x="500" y="920" width="110" height="110" as="geometry" />
        </mxCell>
        <mxCell id="QOVAfa2Nv-o42hQcaNNP-54" value="&lt;div&gt;&lt;br&gt;&lt;/div&gt;Установка на ВМ" style="ellipse;whiteSpace=wrap;html=1;aspect=fixed;" vertex="1" parent="QOVAfa2Nv-o42hQcaNNP-53">
          <mxGeometry width="110" height="110" as="geometry" />
        </mxCell>
        <mxCell id="QOVAfa2Nv-o42hQcaNNP-55" value="" style="rounded=0;whiteSpace=wrap;html=1;fillColor=#000000;" vertex="1" parent="QOVAfa2Nv-o42hQcaNNP-53">
          <mxGeometry x="43.125" y="11" width="23.750000000000004" height="22.5" as="geometry" />
        </mxCell>
        <mxCell id="QOVAfa2Nv-o42hQcaNNP-105" style="edgeStyle=orthogonalEdgeStyle;rounded=0;orthogonalLoop=1;jettySize=auto;html=1;entryX=0.5;entryY=0;entryDx=0;entryDy=0;" edge="1" parent="1" source="QOVAfa2Nv-o42hQcaNNP-56" target="QOVAfa2Nv-o42hQcaNNP-35">
          <mxGeometry relative="1" as="geometry">
            <Array as="points">
              <mxPoint x="464" y="550" />
              <mxPoint x="604" y="550" />
            </Array>
          </mxGeometry>
        </mxCell>
        <mxCell id="QOVAfa2Nv-o42hQcaNNP-56" value="Друг с нужным дистрибутивом" style="ellipse;whiteSpace=wrap;html=1;aspect=fixed;" vertex="1" parent="1">
          <mxGeometry x="414" y="440" width="100" height="100" as="geometry" />
        </mxCell>
        <mxCell id="QOVAfa2Nv-o42hQcaNNP-96" style="edgeStyle=orthogonalEdgeStyle;rounded=0;orthogonalLoop=1;jettySize=auto;html=1;exitX=0.5;exitY=1;exitDx=0;exitDy=0;entryX=0.5;entryY=0;entryDx=0;entryDy=0;" edge="1" parent="1" source="QOVAfa2Nv-o42hQcaNNP-57" target="QOVAfa2Nv-o42hQcaNNP-59">
          <mxGeometry relative="1" as="geometry" />
        </mxCell>
        <mxCell id="QOVAfa2Nv-o42hQcaNNP-57" value="" style="rounded=1;whiteSpace=wrap;html=1;fillColor=#000000;" vertex="1" parent="1">
          <mxGeometry x="339" y="240" width="150" height="10" as="geometry" />
        </mxCell>
        <mxCell id="QOVAfa2Nv-o42hQcaNNP-61" value="" style="group" vertex="1" connectable="0" parent="1">
          <mxGeometry x="309" y="300" width="50" height="20" as="geometry" />
        </mxCell>
        <mxCell id="QOVAfa2Nv-o42hQcaNNP-62" value="" style="ellipse;whiteSpace=wrap;html=1;aspect=fixed;fillColor=#000000;" vertex="1" parent="QOVAfa2Nv-o42hQcaNNP-61">
          <mxGeometry width="20" height="20" as="geometry" />
        </mxCell>
        <mxCell id="QOVAfa2Nv-o42hQcaNNP-63" value="" style="ellipse;whiteSpace=wrap;html=1;aspect=fixed;fillColor=#000000;" vertex="1" parent="QOVAfa2Nv-o42hQcaNNP-61">
          <mxGeometry x="30" width="20" height="20" as="geometry" />
        </mxCell>
        <mxCell id="QOVAfa2Nv-o42hQcaNNP-64" value="" style="group" vertex="1" connectable="0" parent="1">
          <mxGeometry x="189" y="750" width="110" height="110" as="geometry" />
        </mxCell>
        <mxCell id="QOVAfa2Nv-o42hQcaNNP-65" value="&lt;div&gt;&lt;br&gt;&lt;/div&gt;Переразметка диска" style="ellipse;whiteSpace=wrap;html=1;aspect=fixed;" vertex="1" parent="QOVAfa2Nv-o42hQcaNNP-64">
          <mxGeometry width="110" height="110" as="geometry" />
        </mxCell>
        <mxCell id="QOVAfa2Nv-o42hQcaNNP-66" value="" style="rounded=0;whiteSpace=wrap;html=1;fillColor=#000000;" vertex="1" parent="QOVAfa2Nv-o42hQcaNNP-64">
          <mxGeometry x="43.125" y="11" width="23.750000000000004" height="22.5" as="geometry" />
        </mxCell>
        <mxCell id="QOVAfa2Nv-o42hQcaNNP-67" value="" style="group" vertex="1" connectable="0" parent="1">
          <mxGeometry x="410" y="750" width="110" height="110" as="geometry" />
        </mxCell>
        <mxCell id="QOVAfa2Nv-o42hQcaNNP-68" value="&lt;div&gt;&lt;br&gt;&lt;/div&gt;Выдедение мощностей" style="ellipse;whiteSpace=wrap;html=1;aspect=fixed;" vertex="1" parent="QOVAfa2Nv-o42hQcaNNP-67">
          <mxGeometry width="110" height="110" as="geometry" />
        </mxCell>
        <mxCell id="QOVAfa2Nv-o42hQcaNNP-69" value="" style="rounded=0;whiteSpace=wrap;html=1;fillColor=#000000;" vertex="1" parent="QOVAfa2Nv-o42hQcaNNP-67">
          <mxGeometry x="43.125" y="11" width="23.750000000000004" height="22.5" as="geometry" />
        </mxCell>
        <mxCell id="QOVAfa2Nv-o42hQcaNNP-111" style="edgeStyle=orthogonalEdgeStyle;rounded=0;orthogonalLoop=1;jettySize=auto;html=1;entryX=0.5;entryY=0;entryDx=0;entryDy=0;" edge="1" parent="1" source="QOVAfa2Nv-o42hQcaNNP-71" target="QOVAfa2Nv-o42hQcaNNP-72">
          <mxGeometry relative="1" as="geometry">
            <Array as="points">
              <mxPoint x="94" y="870" />
              <mxPoint x="174" y="870" />
            </Array>
          </mxGeometry>
        </mxCell>
        <mxCell id="QOVAfa2Nv-o42hQcaNNP-71" value="Есть нужная разметка" style="ellipse;whiteSpace=wrap;html=1;aspect=fixed;" vertex="1" parent="1">
          <mxGeometry x="39" y="750" width="110" height="110" as="geometry" />
        </mxCell>
        <mxCell id="QOVAfa2Nv-o42hQcaNNP-117" style="edgeStyle=orthogonalEdgeStyle;rounded=0;orthogonalLoop=1;jettySize=auto;html=1;entryX=0.5;entryY=0;entryDx=0;entryDy=0;" edge="1" parent="1" source="QOVAfa2Nv-o42hQcaNNP-72" target="QOVAfa2Nv-o42hQcaNNP-51">
          <mxGeometry relative="1" as="geometry" />
        </mxCell>
        <mxCell id="QOVAfa2Nv-o42hQcaNNP-72" value="" style="rounded=1;whiteSpace=wrap;html=1;fillColor=#000000;" vertex="1" parent="1">
          <mxGeometry x="99" y="890" width="150" height="10" as="geometry" />
        </mxCell>
        <mxCell id="QOVAfa2Nv-o42hQcaNNP-115" style="edgeStyle=orthogonalEdgeStyle;rounded=0;orthogonalLoop=1;jettySize=auto;html=1;entryX=0.5;entryY=0;entryDx=0;entryDy=0;" edge="1" parent="1" source="QOVAfa2Nv-o42hQcaNNP-73" target="QOVAfa2Nv-o42hQcaNNP-74">
          <mxGeometry relative="1" as="geometry">
            <Array as="points">
              <mxPoint x="624" y="870" />
              <mxPoint x="555" y="870" />
            </Array>
          </mxGeometry>
        </mxCell>
        <mxCell id="QOVAfa2Nv-o42hQcaNNP-73" value="Есть нужные мощностя" style="ellipse;whiteSpace=wrap;html=1;aspect=fixed;" vertex="1" parent="1">
          <mxGeometry x="569" y="750" width="110" height="110" as="geometry" />
        </mxCell>
        <mxCell id="QOVAfa2Nv-o42hQcaNNP-116" style="edgeStyle=orthogonalEdgeStyle;rounded=0;orthogonalLoop=1;jettySize=auto;html=1;entryX=0.5;entryY=0;entryDx=0;entryDy=0;" edge="1" parent="1" source="QOVAfa2Nv-o42hQcaNNP-74" target="QOVAfa2Nv-o42hQcaNNP-54">
          <mxGeometry relative="1" as="geometry" />
        </mxCell>
        <mxCell id="QOVAfa2Nv-o42hQcaNNP-74" value="" style="rounded=1;whiteSpace=wrap;html=1;fillColor=#000000;" vertex="1" parent="1">
          <mxGeometry x="480" y="890" width="150" height="10" as="geometry" />
        </mxCell>
        <mxCell id="QOVAfa2Nv-o42hQcaNNP-121" style="edgeStyle=orthogonalEdgeStyle;rounded=0;orthogonalLoop=1;jettySize=auto;html=1;entryX=0.5;entryY=0;entryDx=0;entryDy=0;" edge="1" parent="1" source="QOVAfa2Nv-o42hQcaNNP-75" target="QOVAfa2Nv-o42hQcaNNP-77">
          <mxGeometry relative="1" as="geometry" />
        </mxCell>
        <mxCell id="QOVAfa2Nv-o42hQcaNNP-75" value="" style="rounded=1;whiteSpace=wrap;html=1;fillColor=#000000;" vertex="1" parent="1">
          <mxGeometry x="330" y="1000" width="150" height="10" as="geometry" />
        </mxCell>
        <mxCell id="QOVAfa2Nv-o42hQcaNNP-76" value="" style="group" vertex="1" connectable="0" parent="1">
          <mxGeometry x="345" y="1040" width="120" height="120" as="geometry" />
        </mxCell>
        <mxCell id="QOVAfa2Nv-o42hQcaNNP-77" value="&lt;div&gt;&lt;br&gt;&lt;/div&gt;Первичная настройка системы" style="ellipse;whiteSpace=wrap;html=1;aspect=fixed;" vertex="1" parent="QOVAfa2Nv-o42hQcaNNP-76">
          <mxGeometry width="119.99999999999999" height="119.99999999999999" as="geometry" />
        </mxCell>
        <mxCell id="QOVAfa2Nv-o42hQcaNNP-78" value="" style="rounded=0;whiteSpace=wrap;html=1;fillColor=#000000;" vertex="1" parent="QOVAfa2Nv-o42hQcaNNP-76">
          <mxGeometry x="47.04545454545454" y="12" width="25.90909090909091" height="24.545454545454543" as="geometry" />
        </mxCell>
        <mxCell id="QOVAfa2Nv-o42hQcaNNP-79" value="" style="group" vertex="1" connectable="0" parent="1">
          <mxGeometry x="185" y="1040" width="130" height="120" as="geometry" />
        </mxCell>
        <mxCell id="QOVAfa2Nv-o42hQcaNNP-80" value="&lt;div&gt;&lt;br&gt;&lt;/div&gt;Система&amp;nbsp; настроена&lt;div&gt;&lt;/div&gt;" style="ellipse;whiteSpace=wrap;html=1;aspect=fixed;" vertex="1" parent="QOVAfa2Nv-o42hQcaNNP-79">
          <mxGeometry width="120" height="120" as="geometry" />
        </mxCell>
        <mxCell id="QOVAfa2Nv-o42hQcaNNP-81" value="" style="ellipse;whiteSpace=wrap;html=1;aspect=fixed;fillColor=#000000;" vertex="1" parent="QOVAfa2Nv-o42hQcaNNP-79">
          <mxGeometry x="46.495000000000005" y="13.500000000000002" width="27.000000000000004" height="27.000000000000004" as="geometry" />
        </mxCell>
        <mxCell id="QOVAfa2Nv-o42hQcaNNP-82" value="" style="group" vertex="1" connectable="0" parent="1">
          <mxGeometry x="29" y="1040" width="130" height="120" as="geometry" />
        </mxCell>
        <mxCell id="QOVAfa2Nv-o42hQcaNNP-83" value="&lt;br&gt;&lt;div&gt;Система готова к работе&lt;/div&gt;" style="ellipse;whiteSpace=wrap;html=1;aspect=fixed;" vertex="1" parent="QOVAfa2Nv-o42hQcaNNP-82">
          <mxGeometry width="120" height="120" as="geometry" />
        </mxCell>
        <mxCell id="QOVAfa2Nv-o42hQcaNNP-84" value="" style="triangle;whiteSpace=wrap;html=1;rotation=-90;fillColor=#000000;" vertex="1" parent="QOVAfa2Nv-o42hQcaNNP-82">
          <mxGeometry x="43.75" y="15" width="32.5" height="30" as="geometry" />
        </mxCell>
        <mxCell id="QOVAfa2Nv-o42hQcaNNP-90" value="" style="group" vertex="1" connectable="0" parent="1">
          <mxGeometry x="364" y="280" width="100" height="100" as="geometry" />
        </mxCell>
        <mxCell id="QOVAfa2Nv-o42hQcaNNP-59" value="&lt;div&gt;&lt;br&gt;&lt;/div&gt;Прошение о помощи друга" style="ellipse;whiteSpace=wrap;html=1;aspect=fixed;" vertex="1" parent="QOVAfa2Nv-o42hQcaNNP-90">
          <mxGeometry width="100" height="100" as="geometry" />
        </mxCell>
        <mxCell id="QOVAfa2Nv-o42hQcaNNP-60" value="" style="rounded=0;whiteSpace=wrap;html=1;fillColor=#000000;" vertex="1" parent="QOVAfa2Nv-o42hQcaNNP-90">
          <mxGeometry x="38.995000000000005" y="10" width="23.750000000000004" height="22.5" as="geometry" />
        </mxCell>
        <mxCell id="QOVAfa2Nv-o42hQcaNNP-92" style="edgeStyle=orthogonalEdgeStyle;rounded=0;orthogonalLoop=1;jettySize=auto;html=1;exitX=0.5;exitY=1;exitDx=0;exitDy=0;entryX=0.5;entryY=0;entryDx=0;entryDy=0;" edge="1" parent="1" source="QOVAfa2Nv-o42hQcaNNP-29" target="QOVAfa2Nv-o42hQcaNNP-32">
          <mxGeometry relative="1" as="geometry" />
        </mxCell>
        <mxCell id="QOVAfa2Nv-o42hQcaNNP-93" style="edgeStyle=orthogonalEdgeStyle;rounded=0;orthogonalLoop=1;jettySize=auto;html=1;entryX=0.5;entryY=0;entryDx=0;entryDy=0;" edge="1" parent="1" source="QOVAfa2Nv-o42hQcaNNP-32" target="QOVAfa2Nv-o42hQcaNNP-38">
          <mxGeometry relative="1" as="geometry" />
        </mxCell>
        <mxCell id="QOVAfa2Nv-o42hQcaNNP-95" style="edgeStyle=orthogonalEdgeStyle;rounded=0;orthogonalLoop=1;jettySize=auto;html=1;entryX=0.5;entryY=0;entryDx=0;entryDy=0;" edge="1" parent="1" source="QOVAfa2Nv-o42hQcaNNP-32" target="QOVAfa2Nv-o42hQcaNNP-57">
          <mxGeometry relative="1" as="geometry" />
        </mxCell>
        <mxCell id="QOVAfa2Nv-o42hQcaNNP-97" style="edgeStyle=orthogonalEdgeStyle;rounded=0;orthogonalLoop=1;jettySize=auto;html=1;entryX=0;entryY=0;entryDx=0;entryDy=0;" edge="1" parent="1" source="QOVAfa2Nv-o42hQcaNNP-59" target="QOVAfa2Nv-o42hQcaNNP-32">
          <mxGeometry relative="1" as="geometry">
            <Array as="points">
              <mxPoint x="270" y="330" />
              <mxPoint x="270" y="150" />
            </Array>
          </mxGeometry>
        </mxCell>
        <mxCell id="QOVAfa2Nv-o42hQcaNNP-98" value="" style="group" vertex="1" connectable="0" parent="1">
          <mxGeometry x="500" y="120" width="50" height="20" as="geometry" />
        </mxCell>
        <mxCell id="QOVAfa2Nv-o42hQcaNNP-99" value="" style="ellipse;whiteSpace=wrap;html=1;aspect=fixed;fillColor=#000000;" vertex="1" parent="QOVAfa2Nv-o42hQcaNNP-98">
          <mxGeometry width="20" height="20" as="geometry" />
        </mxCell>
        <mxCell id="QOVAfa2Nv-o42hQcaNNP-100" value="" style="ellipse;whiteSpace=wrap;html=1;aspect=fixed;fillColor=#000000;" vertex="1" parent="QOVAfa2Nv-o42hQcaNNP-98">
          <mxGeometry x="30" width="20" height="20" as="geometry" />
        </mxCell>
        <mxCell id="QOVAfa2Nv-o42hQcaNNP-101" style="edgeStyle=orthogonalEdgeStyle;rounded=0;orthogonalLoop=1;jettySize=auto;html=1;entryX=0.5;entryY=0;entryDx=0;entryDy=0;" edge="1" parent="1" source="QOVAfa2Nv-o42hQcaNNP-38" target="QOVAfa2Nv-o42hQcaNNP-42">
          <mxGeometry relative="1" as="geometry" />
        </mxCell>
        <mxCell id="QOVAfa2Nv-o42hQcaNNP-103" style="edgeStyle=orthogonalEdgeStyle;rounded=0;orthogonalLoop=1;jettySize=auto;html=1;entryX=0.5;entryY=0;entryDx=0;entryDy=0;" edge="1" parent="1" source="QOVAfa2Nv-o42hQcaNNP-42" target="QOVAfa2Nv-o42hQcaNNP-35">
          <mxGeometry relative="1" as="geometry" />
        </mxCell>
        <mxCell id="QOVAfa2Nv-o42hQcaNNP-108" style="edgeStyle=orthogonalEdgeStyle;rounded=0;orthogonalLoop=1;jettySize=auto;html=1;entryX=0.5;entryY=0;entryDx=0;entryDy=0;" edge="1" parent="1" source="QOVAfa2Nv-o42hQcaNNP-46" target="QOVAfa2Nv-o42hQcaNNP-48">
          <mxGeometry relative="1" as="geometry" />
        </mxCell>
        <mxCell id="QOVAfa2Nv-o42hQcaNNP-109" style="edgeStyle=orthogonalEdgeStyle;rounded=0;orthogonalLoop=1;jettySize=auto;html=1;entryX=0.5;entryY=0;entryDx=0;entryDy=0;" edge="1" parent="1" source="QOVAfa2Nv-o42hQcaNNP-46" target="QOVAfa2Nv-o42hQcaNNP-49">
          <mxGeometry relative="1" as="geometry">
            <Array as="points">
              <mxPoint x="465" y="660" />
            </Array>
          </mxGeometry>
        </mxCell>
        <mxCell id="QOVAfa2Nv-o42hQcaNNP-112" style="edgeStyle=orthogonalEdgeStyle;rounded=0;orthogonalLoop=1;jettySize=auto;html=1;entryX=0.5;entryY=0;entryDx=0;entryDy=0;" edge="1" parent="1" source="QOVAfa2Nv-o42hQcaNNP-65" target="QOVAfa2Nv-o42hQcaNNP-72">
          <mxGeometry relative="1" as="geometry">
            <Array as="points">
              <mxPoint x="244" y="870" />
              <mxPoint x="174" y="870" />
            </Array>
          </mxGeometry>
        </mxCell>
        <mxCell id="QOVAfa2Nv-o42hQcaNNP-114" style="edgeStyle=orthogonalEdgeStyle;rounded=0;orthogonalLoop=1;jettySize=auto;html=1;entryX=0.5;entryY=0;entryDx=0;entryDy=0;" edge="1" parent="1" source="QOVAfa2Nv-o42hQcaNNP-68" target="QOVAfa2Nv-o42hQcaNNP-74">
          <mxGeometry relative="1" as="geometry">
            <Array as="points">
              <mxPoint x="465" y="870" />
              <mxPoint x="555" y="870" />
            </Array>
          </mxGeometry>
        </mxCell>
        <mxCell id="QOVAfa2Nv-o42hQcaNNP-118" style="edgeStyle=orthogonalEdgeStyle;rounded=0;orthogonalLoop=1;jettySize=auto;html=1;entryX=0.5;entryY=0;entryDx=0;entryDy=0;" edge="1" parent="1" source="QOVAfa2Nv-o42hQcaNNP-51" target="QOVAfa2Nv-o42hQcaNNP-75">
          <mxGeometry relative="1" as="geometry">
            <mxPoint x="410" y="1010" as="targetPoint" />
          </mxGeometry>
        </mxCell>
        <mxCell id="QOVAfa2Nv-o42hQcaNNP-119" style="edgeStyle=orthogonalEdgeStyle;rounded=0;orthogonalLoop=1;jettySize=auto;html=1;entryX=0.5;entryY=0;entryDx=0;entryDy=0;" edge="1" parent="1" source="QOVAfa2Nv-o42hQcaNNP-54" target="QOVAfa2Nv-o42hQcaNNP-75">
          <mxGeometry relative="1" as="geometry" />
        </mxCell>
        <mxCell id="QOVAfa2Nv-o42hQcaNNP-122" style="edgeStyle=orthogonalEdgeStyle;rounded=0;orthogonalLoop=1;jettySize=auto;html=1;entryX=1;entryY=0.5;entryDx=0;entryDy=0;" edge="1" parent="1" source="QOVAfa2Nv-o42hQcaNNP-77" target="QOVAfa2Nv-o42hQcaNNP-80">
          <mxGeometry relative="1" as="geometry" />
        </mxCell>
        <mxCell id="QOVAfa2Nv-o42hQcaNNP-123" style="edgeStyle=orthogonalEdgeStyle;rounded=0;orthogonalLoop=1;jettySize=auto;html=1;entryX=1;entryY=0.5;entryDx=0;entryDy=0;" edge="1" parent="1" source="QOVAfa2Nv-o42hQcaNNP-80" target="QOVAfa2Nv-o42hQcaNNP-83">
          <mxGeometry relative="1" as="geometry" />
        </mxCell>
        <mxCell id="QOVAfa2Nv-o42hQcaNNP-124" value="Устойчивое состояние" style="text;html=1;align=center;verticalAlign=middle;whiteSpace=wrap;rounded=0;" vertex="1" parent="1">
          <mxGeometry x="108" y="55" width="141" height="30" as="geometry" />
        </mxCell>
        <mxCell id="QOVAfa2Nv-o42hQcaNNP-125" value="Начало процесса" style="text;html=1;align=center;verticalAlign=middle;whiteSpace=wrap;rounded=0;" vertex="1" parent="1">
          <mxGeometry x="108" y="145" width="141" height="30" as="geometry" />
        </mxCell>
        <mxCell id="QOVAfa2Nv-o42hQcaNNP-126" value="Метод / Процесс / Действие" style="text;html=1;align=center;verticalAlign=middle;whiteSpace=wrap;rounded=0;" vertex="1" parent="1">
          <mxGeometry x="108" y="235" width="141" height="30" as="geometry" />
        </mxCell>
        <mxCell id="QOVAfa2Nv-o42hQcaNNP-127" value="Конец процесса" style="text;html=1;align=center;verticalAlign=middle;whiteSpace=wrap;rounded=0;" vertex="1" parent="1">
          <mxGeometry x="108" y="335" width="141" height="30" as="geometry" />
        </mxCell>
        <mxCell id="QOVAfa2Nv-o42hQcaNNP-128" value="Изменённое состояние" style="text;html=1;align=center;verticalAlign=middle;whiteSpace=wrap;rounded=0;" vertex="1" parent="1">
          <mxGeometry x="119" y="415" width="141" height="30" as="geometry" />
        </mxCell>
        <mxCell id="QOVAfa2Nv-o42hQcaNNP-129" value="" style="group" vertex="1" connectable="0" parent="1">
          <mxGeometry x="20" y="460" width="80" height="80" as="geometry" />
        </mxCell>
        <mxCell id="QOVAfa2Nv-o42hQcaNNP-130" value="" style="ellipse;whiteSpace=wrap;html=1;aspect=fixed;" vertex="1" parent="QOVAfa2Nv-o42hQcaNNP-129">
          <mxGeometry width="80" height="80" as="geometry" />
        </mxCell>
        <mxCell id="QOVAfa2Nv-o42hQcaNNP-132" value="Событие" style="text;html=1;align=center;verticalAlign=middle;whiteSpace=wrap;rounded=0;" vertex="1" parent="1">
          <mxGeometry x="119" y="485" width="141" height="30" as="geometry" />
        </mxCell>
        <mxCell id="QOVAfa2Nv-o42hQcaNNP-133" value="" style="group" vertex="1" connectable="0" parent="1">
          <mxGeometry x="13" y="1204" width="80" height="80" as="geometry" />
        </mxCell>
        <mxCell id="QOVAfa2Nv-o42hQcaNNP-134" value="" style="ellipse;whiteSpace=wrap;html=1;aspect=fixed;" vertex="1" parent="QOVAfa2Nv-o42hQcaNNP-133">
          <mxGeometry width="80" height="80" as="geometry" />
        </mxCell>
        <mxCell id="QOVAfa2Nv-o42hQcaNNP-135" value="" style="ellipse;whiteSpace=wrap;html=1;aspect=fixed;fillColor=#000000;" vertex="1" parent="QOVAfa2Nv-o42hQcaNNP-133">
          <mxGeometry x="30" y="10" width="20" height="20" as="geometry" />
        </mxCell>
        <mxCell id="QOVAfa2Nv-o42hQcaNNP-136" value="" style="group" vertex="1" connectable="0" parent="1">
          <mxGeometry x="13" y="1294" width="80" height="80" as="geometry" />
        </mxCell>
        <mxCell id="QOVAfa2Nv-o42hQcaNNP-137" value="" style="ellipse;whiteSpace=wrap;html=1;aspect=fixed;" vertex="1" parent="QOVAfa2Nv-o42hQcaNNP-136">
          <mxGeometry width="80" height="80" as="geometry" />
        </mxCell>
        <mxCell id="QOVAfa2Nv-o42hQcaNNP-138" value="" style="triangle;whiteSpace=wrap;html=1;rotation=90;fillColor=#000000;" vertex="1" parent="QOVAfa2Nv-o42hQcaNNP-136">
          <mxGeometry x="30" y="10" width="20" height="20" as="geometry" />
        </mxCell>
        <mxCell id="QOVAfa2Nv-o42hQcaNNP-139" value="" style="group" vertex="1" connectable="0" parent="1">
          <mxGeometry x="28" y="1594" width="50" height="20" as="geometry" />
        </mxCell>
        <mxCell id="QOVAfa2Nv-o42hQcaNNP-140" value="" style="ellipse;whiteSpace=wrap;html=1;aspect=fixed;fillColor=#000000;" vertex="1" parent="QOVAfa2Nv-o42hQcaNNP-139">
          <mxGeometry width="20" height="20" as="geometry" />
        </mxCell>
        <mxCell id="QOVAfa2Nv-o42hQcaNNP-141" value="" style="ellipse;whiteSpace=wrap;html=1;aspect=fixed;fillColor=#000000;" vertex="1" parent="QOVAfa2Nv-o42hQcaNNP-139">
          <mxGeometry x="30" width="20" height="20" as="geometry" />
        </mxCell>
        <mxCell id="QOVAfa2Nv-o42hQcaNNP-142" value="" style="group" vertex="1" connectable="0" parent="1">
          <mxGeometry x="13" y="1384" width="80" height="80" as="geometry" />
        </mxCell>
        <mxCell id="QOVAfa2Nv-o42hQcaNNP-143" value="" style="ellipse;whiteSpace=wrap;html=1;aspect=fixed;" vertex="1" parent="QOVAfa2Nv-o42hQcaNNP-142">
          <mxGeometry width="80" height="80" as="geometry" />
        </mxCell>
        <mxCell id="QOVAfa2Nv-o42hQcaNNP-144" value="" style="rounded=0;whiteSpace=wrap;html=1;fillColor=#000000;" vertex="1" parent="QOVAfa2Nv-o42hQcaNNP-142">
          <mxGeometry x="30" y="10" width="20" height="20" as="geometry" />
        </mxCell>
        <mxCell id="QOVAfa2Nv-o42hQcaNNP-145" value="" style="group" vertex="1" connectable="0" parent="1">
          <mxGeometry x="13" y="1484" width="80" height="80" as="geometry" />
        </mxCell>
        <mxCell id="QOVAfa2Nv-o42hQcaNNP-146" value="" style="ellipse;whiteSpace=wrap;html=1;aspect=fixed;" vertex="1" parent="QOVAfa2Nv-o42hQcaNNP-145">
          <mxGeometry width="80" height="80" as="geometry" />
        </mxCell>
        <mxCell id="QOVAfa2Nv-o42hQcaNNP-147" value="" style="triangle;whiteSpace=wrap;html=1;rotation=-90;fillColor=#000000;" vertex="1" parent="QOVAfa2Nv-o42hQcaNNP-145">
          <mxGeometry x="30" y="10" width="20" height="20" as="geometry" />
        </mxCell>
        <mxCell id="QOVAfa2Nv-o42hQcaNNP-154" style="edgeStyle=orthogonalEdgeStyle;rounded=0;orthogonalLoop=1;jettySize=auto;html=1;entryX=0.5;entryY=0;entryDx=0;entryDy=0;" edge="1" parent="1" source="QOVAfa2Nv-o42hQcaNNP-155" target="QOVAfa2Nv-o42hQcaNNP-157">
          <mxGeometry relative="1" as="geometry">
            <Array as="points">
              <mxPoint x="747" y="1590" />
              <mxPoint x="606" y="1590" />
              <mxPoint x="606" y="1619" />
            </Array>
          </mxGeometry>
        </mxCell>
        <mxCell id="QOVAfa2Nv-o42hQcaNNP-155" value="p1" style="ellipse;whiteSpace=wrap;html=1;aspect=fixed;" vertex="1" parent="1">
          <mxGeometry x="710" y="1509" width="46" height="46" as="geometry" />
        </mxCell>
        <mxCell id="QOVAfa2Nv-o42hQcaNNP-156" style="edgeStyle=orthogonalEdgeStyle;rounded=0;orthogonalLoop=1;jettySize=auto;html=1;entryX=0.5;entryY=0;entryDx=0;entryDy=0;" edge="1" parent="1" source="QOVAfa2Nv-o42hQcaNNP-157" target="QOVAfa2Nv-o42hQcaNNP-165">
          <mxGeometry relative="1" as="geometry" />
        </mxCell>
        <mxCell id="QOVAfa2Nv-o42hQcaNNP-157" value="" style="rounded=1;whiteSpace=wrap;html=1;fillColor=#000000;" vertex="1" parent="1">
          <mxGeometry x="530.5" y="1619" width="150" height="10" as="geometry" />
        </mxCell>
        <mxCell id="QOVAfa2Nv-o42hQcaNNP-277" style="edgeStyle=orthogonalEdgeStyle;rounded=0;orthogonalLoop=1;jettySize=auto;html=1;entryX=0.5;entryY=0;entryDx=0;entryDy=0;" edge="1" parent="1" source="QOVAfa2Nv-o42hQcaNNP-168" target="QOVAfa2Nv-o42hQcaNNP-252">
          <mxGeometry relative="1" as="geometry" />
        </mxCell>
        <mxCell id="QOVAfa2Nv-o42hQcaNNP-168" value="" style="rounded=1;whiteSpace=wrap;html=1;fillColor=#000000;" vertex="1" parent="1">
          <mxGeometry x="295" y="1760" width="150" height="10" as="geometry" />
        </mxCell>
        <mxCell id="QOVAfa2Nv-o42hQcaNNP-280" style="edgeStyle=orthogonalEdgeStyle;rounded=0;orthogonalLoop=1;jettySize=auto;html=1;entryX=0.5;entryY=0;entryDx=0;entryDy=0;" edge="1" parent="1" source="QOVAfa2Nv-o42hQcaNNP-170" target="QOVAfa2Nv-o42hQcaNNP-255">
          <mxGeometry relative="1" as="geometry" />
        </mxCell>
        <mxCell id="QOVAfa2Nv-o42hQcaNNP-170" value="" style="rounded=1;whiteSpace=wrap;html=1;fillColor=#000000;" vertex="1" parent="1">
          <mxGeometry x="478" y="1760" width="150" height="10" as="geometry" />
        </mxCell>
        <mxCell id="QOVAfa2Nv-o42hQcaNNP-177" style="edgeStyle=orthogonalEdgeStyle;rounded=0;orthogonalLoop=1;jettySize=auto;html=1;entryX=0.5;entryY=0;entryDx=0;entryDy=0;" edge="1" parent="1" source="QOVAfa2Nv-o42hQcaNNP-178" target="QOVAfa2Nv-o42hQcaNNP-157">
          <mxGeometry relative="1" as="geometry">
            <Array as="points">
              <mxPoint x="462" y="1590" />
              <mxPoint x="606" y="1590" />
              <mxPoint x="606" y="1619" />
            </Array>
          </mxGeometry>
        </mxCell>
        <mxCell id="QOVAfa2Nv-o42hQcaNNP-178" value="p2" style="ellipse;whiteSpace=wrap;html=1;aspect=fixed;" vertex="1" parent="1">
          <mxGeometry x="445" y="1511" width="44" height="44" as="geometry" />
        </mxCell>
        <mxCell id="QOVAfa2Nv-o42hQcaNNP-179" style="edgeStyle=orthogonalEdgeStyle;rounded=0;orthogonalLoop=1;jettySize=auto;html=1;exitX=0.5;exitY=1;exitDx=0;exitDy=0;entryX=0.5;entryY=0;entryDx=0;entryDy=0;" edge="1" parent="1" source="QOVAfa2Nv-o42hQcaNNP-180" target="QOVAfa2Nv-o42hQcaNNP-210">
          <mxGeometry relative="1" as="geometry" />
        </mxCell>
        <mxCell id="QOVAfa2Nv-o42hQcaNNP-180" value="" style="rounded=1;whiteSpace=wrap;html=1;fillColor=#000000;" vertex="1" parent="1">
          <mxGeometry x="337" y="1414" width="150" height="10" as="geometry" />
        </mxCell>
        <mxCell id="QOVAfa2Nv-o42hQcaNNP-181" value="" style="group" vertex="1" connectable="0" parent="1">
          <mxGeometry x="307" y="1474" width="50" height="20" as="geometry" />
        </mxCell>
        <mxCell id="QOVAfa2Nv-o42hQcaNNP-182" value="" style="ellipse;whiteSpace=wrap;html=1;aspect=fixed;fillColor=#000000;" vertex="1" parent="QOVAfa2Nv-o42hQcaNNP-181">
          <mxGeometry width="20" height="20" as="geometry" />
        </mxCell>
        <mxCell id="QOVAfa2Nv-o42hQcaNNP-183" value="" style="ellipse;whiteSpace=wrap;html=1;aspect=fixed;fillColor=#000000;" vertex="1" parent="QOVAfa2Nv-o42hQcaNNP-181">
          <mxGeometry x="30" width="20" height="20" as="geometry" />
        </mxCell>
        <mxCell id="QOVAfa2Nv-o42hQcaNNP-212" style="edgeStyle=orthogonalEdgeStyle;rounded=0;orthogonalLoop=1;jettySize=auto;html=1;exitX=0.5;exitY=1;exitDx=0;exitDy=0;entryX=0.5;entryY=0;entryDx=0;entryDy=0;" edge="1" parent="1" source="QOVAfa2Nv-o42hQcaNNP-149" target="QOVAfa2Nv-o42hQcaNNP-152">
          <mxGeometry relative="1" as="geometry" />
        </mxCell>
        <mxCell id="QOVAfa2Nv-o42hQcaNNP-214" style="edgeStyle=orthogonalEdgeStyle;rounded=0;orthogonalLoop=1;jettySize=auto;html=1;entryX=0.5;entryY=0;entryDx=0;entryDy=0;" edge="1" parent="1" source="QOVAfa2Nv-o42hQcaNNP-152" target="QOVAfa2Nv-o42hQcaNNP-180">
          <mxGeometry relative="1" as="geometry" />
        </mxCell>
        <mxCell id="QOVAfa2Nv-o42hQcaNNP-215" style="edgeStyle=orthogonalEdgeStyle;rounded=0;orthogonalLoop=1;jettySize=auto;html=1;entryX=0;entryY=0;entryDx=0;entryDy=0;" edge="1" parent="1" source="QOVAfa2Nv-o42hQcaNNP-210" target="QOVAfa2Nv-o42hQcaNNP-152">
          <mxGeometry relative="1" as="geometry">
            <Array as="points">
              <mxPoint x="268" y="1504" />
              <mxPoint x="268" y="1324" />
            </Array>
          </mxGeometry>
        </mxCell>
        <mxCell id="QOVAfa2Nv-o42hQcaNNP-216" value="" style="group" vertex="1" connectable="0" parent="1">
          <mxGeometry x="498" y="1294" width="50" height="20" as="geometry" />
        </mxCell>
        <mxCell id="QOVAfa2Nv-o42hQcaNNP-217" value="" style="ellipse;whiteSpace=wrap;html=1;aspect=fixed;fillColor=#000000;" vertex="1" parent="QOVAfa2Nv-o42hQcaNNP-216">
          <mxGeometry width="20" height="20" as="geometry" />
        </mxCell>
        <mxCell id="QOVAfa2Nv-o42hQcaNNP-218" value="" style="ellipse;whiteSpace=wrap;html=1;aspect=fixed;fillColor=#000000;" vertex="1" parent="QOVAfa2Nv-o42hQcaNNP-216">
          <mxGeometry x="30" width="20" height="20" as="geometry" />
        </mxCell>
        <mxCell id="QOVAfa2Nv-o42hQcaNNP-220" style="edgeStyle=orthogonalEdgeStyle;rounded=0;orthogonalLoop=1;jettySize=auto;html=1;entryX=0.5;entryY=0;entryDx=0;entryDy=0;" edge="1" parent="1" source="QOVAfa2Nv-o42hQcaNNP-162" target="QOVAfa2Nv-o42hQcaNNP-157">
          <mxGeometry relative="1" as="geometry" />
        </mxCell>
        <mxCell id="QOVAfa2Nv-o42hQcaNNP-222" style="edgeStyle=orthogonalEdgeStyle;rounded=0;orthogonalLoop=1;jettySize=auto;html=1;entryX=0.5;entryY=0;entryDx=0;entryDy=0;" edge="1" parent="1" source="QOVAfa2Nv-o42hQcaNNP-165" target="QOVAfa2Nv-o42hQcaNNP-170">
          <mxGeometry relative="1" as="geometry">
            <Array as="points">
              <mxPoint x="606" y="1730" />
              <mxPoint x="553" y="1730" />
            </Array>
          </mxGeometry>
        </mxCell>
        <mxCell id="QOVAfa2Nv-o42hQcaNNP-229" value="Устойчивое состояние" style="text;html=1;align=center;verticalAlign=middle;whiteSpace=wrap;rounded=0;" vertex="1" parent="1">
          <mxGeometry x="106" y="1229" width="141" height="30" as="geometry" />
        </mxCell>
        <mxCell id="QOVAfa2Nv-o42hQcaNNP-230" value="Начало процесса" style="text;html=1;align=center;verticalAlign=middle;whiteSpace=wrap;rounded=0;" vertex="1" parent="1">
          <mxGeometry x="106" y="1319" width="141" height="30" as="geometry" />
        </mxCell>
        <mxCell id="QOVAfa2Nv-o42hQcaNNP-231" value="Метод / Процесс / Действие" style="text;html=1;align=center;verticalAlign=middle;whiteSpace=wrap;rounded=0;" vertex="1" parent="1">
          <mxGeometry x="106" y="1409" width="141" height="30" as="geometry" />
        </mxCell>
        <mxCell id="QOVAfa2Nv-o42hQcaNNP-232" value="Конец процесса" style="text;html=1;align=center;verticalAlign=middle;whiteSpace=wrap;rounded=0;" vertex="1" parent="1">
          <mxGeometry x="106" y="1509" width="141" height="30" as="geometry" />
        </mxCell>
        <mxCell id="QOVAfa2Nv-o42hQcaNNP-233" value="Изменённое состояние" style="text;html=1;align=center;verticalAlign=middle;whiteSpace=wrap;rounded=0;" vertex="1" parent="1">
          <mxGeometry x="117" y="1589" width="141" height="30" as="geometry" />
        </mxCell>
        <mxCell id="QOVAfa2Nv-o42hQcaNNP-234" value="" style="group" vertex="1" connectable="0" parent="1">
          <mxGeometry x="18" y="1634" width="80" height="80" as="geometry" />
        </mxCell>
        <mxCell id="QOVAfa2Nv-o42hQcaNNP-235" value="" style="ellipse;whiteSpace=wrap;html=1;aspect=fixed;" vertex="1" parent="QOVAfa2Nv-o42hQcaNNP-234">
          <mxGeometry width="80" height="80" as="geometry" />
        </mxCell>
        <mxCell id="QOVAfa2Nv-o42hQcaNNP-236" value="Событие" style="text;html=1;align=center;verticalAlign=middle;whiteSpace=wrap;rounded=0;" vertex="1" parent="1">
          <mxGeometry x="117" y="1659" width="141" height="30" as="geometry" />
        </mxCell>
        <mxCell id="QOVAfa2Nv-o42hQcaNNP-149" value="&lt;div&gt;&lt;/div&gt;" style="ellipse;whiteSpace=wrap;html=1;aspect=fixed;" vertex="1" parent="1">
          <mxGeometry x="580" y="1229" width="50" height="50" as="geometry" />
        </mxCell>
        <mxCell id="QOVAfa2Nv-o42hQcaNNP-150" value="" style="triangle;whiteSpace=wrap;html=1;rotation=90;fillColor=#000000;" vertex="1" parent="1">
          <mxGeometry x="594.37" y="1241.75" width="21.25" height="24.5" as="geometry" />
        </mxCell>
        <mxCell id="QOVAfa2Nv-o42hQcaNNP-237" value="" style="group" vertex="1" connectable="0" parent="1">
          <mxGeometry x="580" y="1330" width="63.194444444444436" height="50.5" as="geometry" />
        </mxCell>
        <mxCell id="QOVAfa2Nv-o42hQcaNNP-152" value="&lt;div&gt;&lt;/div&gt;&lt;div&gt;&lt;br&gt;&lt;/div&gt;&lt;div&gt;S1&lt;/div&gt;" style="ellipse;whiteSpace=wrap;html=1;aspect=fixed;" vertex="1" parent="QOVAfa2Nv-o42hQcaNNP-237">
          <mxGeometry width="50.5" height="50.5" as="geometry" />
        </mxCell>
        <mxCell id="QOVAfa2Nv-o42hQcaNNP-153" value="" style="ellipse;whiteSpace=wrap;html=1;aspect=fixed;fillColor=#000000;" vertex="1" parent="QOVAfa2Nv-o42hQcaNNP-237">
          <mxGeometry x="18.67999999999995" y="6.880000000000109" width="14.13" height="14.13" as="geometry" />
        </mxCell>
        <mxCell id="QOVAfa2Nv-o42hQcaNNP-213" style="edgeStyle=orthogonalEdgeStyle;rounded=0;orthogonalLoop=1;jettySize=auto;html=1;entryX=0.5;entryY=0;entryDx=0;entryDy=0;" edge="1" parent="1" source="QOVAfa2Nv-o42hQcaNNP-152" target="QOVAfa2Nv-o42hQcaNNP-159">
          <mxGeometry relative="1" as="geometry" />
        </mxCell>
        <mxCell id="QOVAfa2Nv-o42hQcaNNP-238" value="" style="group" vertex="1" connectable="0" parent="1">
          <mxGeometry x="580.5" y="1409" width="63.194444444444436" height="56" as="geometry" />
        </mxCell>
        <mxCell id="QOVAfa2Nv-o42hQcaNNP-159" value="&lt;div&gt;&lt;/div&gt;&lt;div&gt;&lt;br&gt;&lt;/div&gt;&lt;div&gt;e1&lt;/div&gt;" style="ellipse;whiteSpace=wrap;html=1;aspect=fixed;" vertex="1" parent="QOVAfa2Nv-o42hQcaNNP-238">
          <mxGeometry width="50" height="50" as="geometry" />
        </mxCell>
        <mxCell id="QOVAfa2Nv-o42hQcaNNP-160" value="" style="rounded=0;whiteSpace=wrap;html=1;fillColor=#000000;" vertex="1" parent="QOVAfa2Nv-o42hQcaNNP-238">
          <mxGeometry x="18.399999999999977" y="6.220000000000027" width="13.19" height="13.78" as="geometry" />
        </mxCell>
        <mxCell id="QOVAfa2Nv-o42hQcaNNP-239" value="" style="group" vertex="1" connectable="0" parent="1">
          <mxGeometry x="386.75" y="1450" width="50.5" height="50.5" as="geometry" />
        </mxCell>
        <mxCell id="QOVAfa2Nv-o42hQcaNNP-210" value="&lt;div&gt;&lt;/div&gt;&lt;div&gt;&lt;br&gt;&lt;/div&gt;&lt;div&gt;e2&lt;/div&gt;" style="ellipse;whiteSpace=wrap;html=1;aspect=fixed;" vertex="1" parent="QOVAfa2Nv-o42hQcaNNP-239">
          <mxGeometry width="50.5" height="50.5" as="geometry" />
        </mxCell>
        <mxCell id="QOVAfa2Nv-o42hQcaNNP-211" value="" style="rounded=0;whiteSpace=wrap;html=1;fillColor=#000000;" vertex="1" parent="QOVAfa2Nv-o42hQcaNNP-239">
          <mxGeometry x="20.5" y="6" width="11.6" height="13.78" as="geometry" />
        </mxCell>
        <mxCell id="QOVAfa2Nv-o42hQcaNNP-219" style="edgeStyle=orthogonalEdgeStyle;rounded=0;orthogonalLoop=1;jettySize=auto;html=1;entryX=0.5;entryY=0;entryDx=0;entryDy=0;" edge="1" parent="1" source="QOVAfa2Nv-o42hQcaNNP-159" target="QOVAfa2Nv-o42hQcaNNP-162">
          <mxGeometry relative="1" as="geometry" />
        </mxCell>
        <mxCell id="QOVAfa2Nv-o42hQcaNNP-242" value="" style="group" vertex="1" connectable="0" parent="1">
          <mxGeometry x="580.5" y="1510" width="61.875" height="60" as="geometry" />
        </mxCell>
        <mxCell id="QOVAfa2Nv-o42hQcaNNP-162" value="&lt;div&gt;&lt;/div&gt;&lt;div&gt;&lt;/div&gt;&lt;div&gt;&lt;br&gt;&lt;/div&gt;&lt;div&gt;e3&lt;/div&gt;" style="ellipse;whiteSpace=wrap;html=1;aspect=fixed;" vertex="1" parent="QOVAfa2Nv-o42hQcaNNP-242">
          <mxGeometry width="50" height="50" as="geometry" />
        </mxCell>
        <mxCell id="QOVAfa2Nv-o42hQcaNNP-163" value="" style="rounded=0;whiteSpace=wrap;html=1;fillColor=#000000;" vertex="1" parent="QOVAfa2Nv-o42hQcaNNP-242">
          <mxGeometry x="18.659999999999968" y="5.1099999999999" width="10.84" height="14.89" as="geometry" />
        </mxCell>
        <mxCell id="QOVAfa2Nv-o42hQcaNNP-248" value="" style="group" vertex="1" connectable="0" parent="1">
          <mxGeometry x="577.32" y="1660" width="56.370000000000005" height="56.36999999999989" as="geometry" />
        </mxCell>
        <mxCell id="QOVAfa2Nv-o42hQcaNNP-165" value="&lt;div&gt;&lt;/div&gt;&lt;div&gt;&lt;/div&gt;&lt;div&gt;&lt;br&gt;&lt;/div&gt;&lt;div&gt;S2&lt;/div&gt;" style="ellipse;whiteSpace=wrap;html=1;aspect=fixed;" vertex="1" parent="QOVAfa2Nv-o42hQcaNNP-248">
          <mxGeometry width="56.37" height="56.37" as="geometry" />
        </mxCell>
        <mxCell id="QOVAfa2Nv-o42hQcaNNP-166" value="" style="ellipse;whiteSpace=wrap;html=1;aspect=fixed;fillColor=#000000;" vertex="1" parent="QOVAfa2Nv-o42hQcaNNP-248">
          <mxGeometry x="20.360000000000014" y="5.369999999999891" width="14.76" height="14.76" as="geometry" />
        </mxCell>
        <mxCell id="QOVAfa2Nv-o42hQcaNNP-249" style="edgeStyle=orthogonalEdgeStyle;rounded=0;orthogonalLoop=1;jettySize=auto;html=1;entryX=0.5;entryY=0;entryDx=0;entryDy=0;" edge="1" parent="1" source="QOVAfa2Nv-o42hQcaNNP-165" target="QOVAfa2Nv-o42hQcaNNP-168">
          <mxGeometry relative="1" as="geometry">
            <Array as="points">
              <mxPoint x="606" y="1730" />
              <mxPoint x="370" y="1730" />
            </Array>
          </mxGeometry>
        </mxCell>
        <mxCell id="QOVAfa2Nv-o42hQcaNNP-251" value="" style="group" vertex="1" connectable="0" parent="1">
          <mxGeometry x="345" y="1800" width="61.875" height="60" as="geometry" />
        </mxCell>
        <mxCell id="QOVAfa2Nv-o42hQcaNNP-252" value="&lt;div&gt;&lt;/div&gt;&lt;div&gt;&lt;/div&gt;&lt;div&gt;&lt;br&gt;&lt;/div&gt;&lt;div&gt;e5&lt;/div&gt;" style="ellipse;whiteSpace=wrap;html=1;aspect=fixed;" vertex="1" parent="QOVAfa2Nv-o42hQcaNNP-251">
          <mxGeometry width="50" height="50" as="geometry" />
        </mxCell>
        <mxCell id="QOVAfa2Nv-o42hQcaNNP-253" value="" style="rounded=0;whiteSpace=wrap;html=1;fillColor=#000000;" vertex="1" parent="QOVAfa2Nv-o42hQcaNNP-251">
          <mxGeometry x="18.659999999999968" y="5.1099999999999" width="10.84" height="14.89" as="geometry" />
        </mxCell>
        <mxCell id="QOVAfa2Nv-o42hQcaNNP-278" style="edgeStyle=orthogonalEdgeStyle;rounded=0;orthogonalLoop=1;jettySize=auto;html=1;entryX=0.5;entryY=0;entryDx=0;entryDy=0;" edge="1" parent="1" source="QOVAfa2Nv-o42hQcaNNP-250" target="QOVAfa2Nv-o42hQcaNNP-258">
          <mxGeometry relative="1" as="geometry">
            <Array as="points">
              <mxPoint x="290" y="1860" />
              <mxPoint x="345" y="1860" />
            </Array>
          </mxGeometry>
        </mxCell>
        <mxCell id="QOVAfa2Nv-o42hQcaNNP-250" value="p4" style="ellipse;whiteSpace=wrap;html=1;aspect=fixed;" vertex="1" parent="1">
          <mxGeometry x="265" y="1795" width="50" height="50" as="geometry" />
        </mxCell>
        <mxCell id="QOVAfa2Nv-o42hQcaNNP-254" value="" style="group" vertex="1" connectable="0" parent="1">
          <mxGeometry x="529" y="1795" width="61.875" height="60" as="geometry" />
        </mxCell>
        <mxCell id="QOVAfa2Nv-o42hQcaNNP-255" value="&lt;div&gt;&lt;/div&gt;&lt;div&gt;&lt;/div&gt;&lt;div&gt;&lt;br&gt;&lt;/div&gt;&lt;div&gt;e4&lt;/div&gt;" style="ellipse;whiteSpace=wrap;html=1;aspect=fixed;" vertex="1" parent="QOVAfa2Nv-o42hQcaNNP-254">
          <mxGeometry width="50" height="50" as="geometry" />
        </mxCell>
        <mxCell id="QOVAfa2Nv-o42hQcaNNP-256" value="" style="rounded=0;whiteSpace=wrap;html=1;fillColor=#000000;" vertex="1" parent="QOVAfa2Nv-o42hQcaNNP-254">
          <mxGeometry x="18.659999999999968" y="5.1099999999999" width="10.84" height="14.89" as="geometry" />
        </mxCell>
        <mxCell id="QOVAfa2Nv-o42hQcaNNP-281" style="edgeStyle=orthogonalEdgeStyle;rounded=0;orthogonalLoop=1;jettySize=auto;html=1;entryX=0.5;entryY=0;entryDx=0;entryDy=0;" edge="1" parent="1" source="QOVAfa2Nv-o42hQcaNNP-257" target="QOVAfa2Nv-o42hQcaNNP-259">
          <mxGeometry relative="1" as="geometry">
            <Array as="points">
              <mxPoint x="653" y="1860" />
              <mxPoint x="589" y="1860" />
            </Array>
          </mxGeometry>
        </mxCell>
        <mxCell id="QOVAfa2Nv-o42hQcaNNP-257" value="p3" style="ellipse;whiteSpace=wrap;html=1;aspect=fixed;" vertex="1" parent="1">
          <mxGeometry x="628" y="1795" width="50" height="50" as="geometry" />
        </mxCell>
        <mxCell id="QOVAfa2Nv-o42hQcaNNP-284" style="edgeStyle=orthogonalEdgeStyle;rounded=0;orthogonalLoop=1;jettySize=auto;html=1;entryX=0.5;entryY=0;entryDx=0;entryDy=0;" edge="1" parent="1" source="QOVAfa2Nv-o42hQcaNNP-258" target="QOVAfa2Nv-o42hQcaNNP-262">
          <mxGeometry relative="1" as="geometry" />
        </mxCell>
        <mxCell id="QOVAfa2Nv-o42hQcaNNP-258" value="" style="rounded=1;whiteSpace=wrap;html=1;fillColor=#000000;" vertex="1" parent="1">
          <mxGeometry x="270" y="1880" width="150" height="10" as="geometry" />
        </mxCell>
        <mxCell id="QOVAfa2Nv-o42hQcaNNP-283" style="edgeStyle=orthogonalEdgeStyle;rounded=0;orthogonalLoop=1;jettySize=auto;html=1;entryX=0.5;entryY=0;entryDx=0;entryDy=0;" edge="1" parent="1" source="QOVAfa2Nv-o42hQcaNNP-259" target="QOVAfa2Nv-o42hQcaNNP-265">
          <mxGeometry relative="1" as="geometry" />
        </mxCell>
        <mxCell id="QOVAfa2Nv-o42hQcaNNP-259" value="" style="rounded=1;whiteSpace=wrap;html=1;fillColor=#000000;" vertex="1" parent="1">
          <mxGeometry x="514" y="1880" width="150" height="10" as="geometry" />
        </mxCell>
        <mxCell id="QOVAfa2Nv-o42hQcaNNP-287" style="edgeStyle=orthogonalEdgeStyle;rounded=0;orthogonalLoop=1;jettySize=auto;html=1;entryX=0.5;entryY=0;entryDx=0;entryDy=0;" edge="1" parent="1" source="QOVAfa2Nv-o42hQcaNNP-260" target="QOVAfa2Nv-o42hQcaNNP-268">
          <mxGeometry relative="1" as="geometry" />
        </mxCell>
        <mxCell id="QOVAfa2Nv-o42hQcaNNP-260" value="" style="rounded=1;whiteSpace=wrap;html=1;fillColor=#000000;" vertex="1" parent="1">
          <mxGeometry x="390" y="2010" width="150" height="10" as="geometry" />
        </mxCell>
        <mxCell id="QOVAfa2Nv-o42hQcaNNP-267" value="" style="group" vertex="1" connectable="0" parent="1">
          <mxGeometry x="436.13" y="2050" width="61.875" height="60" as="geometry" />
        </mxCell>
        <mxCell id="QOVAfa2Nv-o42hQcaNNP-289" style="edgeStyle=orthogonalEdgeStyle;rounded=0;orthogonalLoop=1;jettySize=auto;html=1;entryX=1;entryY=0.5;entryDx=0;entryDy=0;" edge="1" parent="QOVAfa2Nv-o42hQcaNNP-267" source="QOVAfa2Nv-o42hQcaNNP-268" target="QOVAfa2Nv-o42hQcaNNP-271">
          <mxGeometry relative="1" as="geometry" />
        </mxCell>
        <mxCell id="QOVAfa2Nv-o42hQcaNNP-268" value="&lt;div&gt;&lt;/div&gt;&lt;div&gt;&lt;/div&gt;&lt;div&gt;&lt;br&gt;&lt;/div&gt;&lt;div&gt;e8&lt;/div&gt;" style="ellipse;whiteSpace=wrap;html=1;aspect=fixed;" vertex="1" parent="QOVAfa2Nv-o42hQcaNNP-267">
          <mxGeometry x="3.75" y="5" width="50" height="50" as="geometry" />
        </mxCell>
        <mxCell id="QOVAfa2Nv-o42hQcaNNP-269" value="" style="rounded=0;whiteSpace=wrap;html=1;fillColor=#000000;" vertex="1" parent="QOVAfa2Nv-o42hQcaNNP-267">
          <mxGeometry x="22.409999999999968" y="10.1099999999999" width="10.84" height="14.89" as="geometry" />
        </mxCell>
        <mxCell id="QOVAfa2Nv-o42hQcaNNP-270" value="" style="group" vertex="1" connectable="0" parent="QOVAfa2Nv-o42hQcaNNP-267">
          <mxGeometry x="-86.25" y="5" width="50" height="50" as="geometry" />
        </mxCell>
        <mxCell id="QOVAfa2Nv-o42hQcaNNP-271" value="&lt;div&gt;&lt;/div&gt;&lt;div&gt;&lt;/div&gt;&lt;div&gt;&lt;br&gt;&lt;/div&gt;&lt;div&gt;S3&lt;/div&gt;" style="ellipse;whiteSpace=wrap;html=1;aspect=fixed;" vertex="1" parent="QOVAfa2Nv-o42hQcaNNP-270">
          <mxGeometry width="50" height="50" as="geometry" />
        </mxCell>
        <mxCell id="QOVAfa2Nv-o42hQcaNNP-272" value="" style="ellipse;whiteSpace=wrap;html=1;aspect=fixed;fillColor=#000000;" vertex="1" parent="QOVAfa2Nv-o42hQcaNNP-270">
          <mxGeometry x="18.059251374844788" y="4.763171899946693" width="13.092070250133048" height="13.092070250133048" as="geometry" />
        </mxCell>
        <mxCell id="QOVAfa2Nv-o42hQcaNNP-276" value="" style="group" vertex="1" connectable="0" parent="QOVAfa2Nv-o42hQcaNNP-267">
          <mxGeometry x="-180" y="5" width="50" height="50" as="geometry" />
        </mxCell>
        <mxCell id="QOVAfa2Nv-o42hQcaNNP-274" value="" style="ellipse;whiteSpace=wrap;html=1;aspect=fixed;" vertex="1" parent="QOVAfa2Nv-o42hQcaNNP-276">
          <mxGeometry width="50" height="50" as="geometry" />
        </mxCell>
        <mxCell id="QOVAfa2Nv-o42hQcaNNP-275" value="" style="triangle;whiteSpace=wrap;html=1;rotation=-90;fillColor=#000000;" vertex="1" parent="QOVAfa2Nv-o42hQcaNNP-276">
          <mxGeometry x="11.870000000000005" y="12.5" width="26.25" height="25" as="geometry" />
        </mxCell>
        <mxCell id="QOVAfa2Nv-o42hQcaNNP-290" style="edgeStyle=orthogonalEdgeStyle;rounded=0;orthogonalLoop=1;jettySize=auto;html=1;entryX=1;entryY=0.5;entryDx=0;entryDy=0;" edge="1" parent="QOVAfa2Nv-o42hQcaNNP-267" source="QOVAfa2Nv-o42hQcaNNP-271" target="QOVAfa2Nv-o42hQcaNNP-274">
          <mxGeometry relative="1" as="geometry" />
        </mxCell>
        <mxCell id="QOVAfa2Nv-o42hQcaNNP-279" style="edgeStyle=orthogonalEdgeStyle;rounded=0;orthogonalLoop=1;jettySize=auto;html=1;entryX=0.5;entryY=0;entryDx=0;entryDy=0;" edge="1" parent="1" source="QOVAfa2Nv-o42hQcaNNP-252" target="QOVAfa2Nv-o42hQcaNNP-258">
          <mxGeometry relative="1" as="geometry">
            <Array as="points">
              <mxPoint x="370" y="1860" />
              <mxPoint x="345" y="1860" />
            </Array>
          </mxGeometry>
        </mxCell>
        <mxCell id="QOVAfa2Nv-o42hQcaNNP-282" style="edgeStyle=orthogonalEdgeStyle;rounded=0;orthogonalLoop=1;jettySize=auto;html=1;entryX=0.5;entryY=0;entryDx=0;entryDy=0;" edge="1" parent="1" source="QOVAfa2Nv-o42hQcaNNP-255" target="QOVAfa2Nv-o42hQcaNNP-259">
          <mxGeometry relative="1" as="geometry">
            <Array as="points">
              <mxPoint x="554" y="1860" />
              <mxPoint x="589" y="1860" />
            </Array>
          </mxGeometry>
        </mxCell>
        <mxCell id="QOVAfa2Nv-o42hQcaNNP-286" style="edgeStyle=orthogonalEdgeStyle;rounded=0;orthogonalLoop=1;jettySize=auto;html=1;entryX=0.5;entryY=0;entryDx=0;entryDy=0;" edge="1" parent="1" source="QOVAfa2Nv-o42hQcaNNP-265" target="QOVAfa2Nv-o42hQcaNNP-260">
          <mxGeometry relative="1" as="geometry">
            <Array as="points">
              <mxPoint x="589" y="1990" />
              <mxPoint x="465" y="1990" />
            </Array>
          </mxGeometry>
        </mxCell>
        <mxCell id="QOVAfa2Nv-o42hQcaNNP-265" value="&lt;div&gt;&lt;/div&gt;&lt;div&gt;&lt;/div&gt;&lt;div&gt;&lt;br&gt;&lt;/div&gt;&lt;div&gt;e7&lt;/div&gt;" style="ellipse;whiteSpace=wrap;html=1;aspect=fixed;" vertex="1" parent="1">
          <mxGeometry x="564.0000000000001" y="1930" width="50" height="50" as="geometry" />
        </mxCell>
        <mxCell id="QOVAfa2Nv-o42hQcaNNP-266" value="" style="rounded=0;whiteSpace=wrap;html=1;fillColor=#000000;" vertex="1" parent="1">
          <mxGeometry x="582.6600000000001" y="1935.11" width="10.84" height="14.89" as="geometry" />
        </mxCell>
        <mxCell id="QOVAfa2Nv-o42hQcaNNP-285" style="edgeStyle=orthogonalEdgeStyle;rounded=0;orthogonalLoop=1;jettySize=auto;html=1;entryX=0.5;entryY=0;entryDx=0;entryDy=0;" edge="1" parent="1" source="QOVAfa2Nv-o42hQcaNNP-262" target="QOVAfa2Nv-o42hQcaNNP-260">
          <mxGeometry relative="1" as="geometry">
            <Array as="points">
              <mxPoint x="345" y="1990" />
              <mxPoint x="465" y="1990" />
            </Array>
          </mxGeometry>
        </mxCell>
        <mxCell id="QOVAfa2Nv-o42hQcaNNP-262" value="&lt;div&gt;&lt;/div&gt;&lt;div&gt;&lt;/div&gt;&lt;div&gt;&lt;br&gt;&lt;/div&gt;&lt;div&gt;e6&lt;/div&gt;" style="ellipse;whiteSpace=wrap;html=1;aspect=fixed;" vertex="1" parent="1">
          <mxGeometry x="320" y="1930" width="50" height="50" as="geometry" />
        </mxCell>
        <mxCell id="QOVAfa2Nv-o42hQcaNNP-263" value="" style="rounded=0;whiteSpace=wrap;html=1;fillColor=#000000;" vertex="1" parent="1">
          <mxGeometry x="338.58" y="1935.11" width="10.84" height="14.89" as="geometry" />
        </mxCell>
      </root>
    </mxGraphModel>
  </diagram>
</mxfile>
